<svg xmlns="http://www.w3.org/2000/svg" width="24" height="25" viewBox="0 0 24 25"><g><g><g><path fill="#fff" d="M20.776.583H2.911A2.914 2.914 0 0 0 0 3.494v17.865a2.914 2.914 0 0 0 2.91 2.911.482.482 0 0 0 0-.964 1.949 1.949 0 0 1-1.946-1.947V3.494c0-1.073.873-1.947 1.947-1.947h17.865c1.073 0 1.947.874 1.947 1.947v17.865a1.949 1.949 0 0 1-1.947 1.947H8.068a.482.482 0 0 0 0 .964h12.708a2.914 2.914 0 0 0 2.91-2.91V3.493a2.914 2.914 0 0 0-2.91-2.91z"/></g><g><path fill="#fff" d="M11.843 4.76a.482.482 0 0 0-.482.482v7.185c0 .128.051.25.142.34l8.033 8.034a.48.48 0 0 0 .682 0 .482.482 0 0 0 0-.681l-7.893-7.893V5.242a.482.482 0 0 0-.482-.482z"/></g></g></g></svg>