<svg xmlns="http://www.w3.org/2000/svg" width="55" height="55" viewBox="0 0 55 55"><g><g><g><path fill="#fff" d="M9.237 18.31v28.865a2.969 2.969 0 1 0 5.938 0V18.309a2.969 2.969 0 0 0-5.938 0zM1.649 1.65h51.629v51.628H1.649zM0 54.926h54.927V0H0z"/></g><g><path fill="#3865be" d="M11.051 45.36S7.396 32.581 17.98 24.742c10.583-7.84 20.104-9.149 16.165-20.123 0 0 8.473 5.531 8.412 16.989 0 0 1.56 11.376-10.061 12.041 0 0-4.066.307-8.248-1.32 0 0-9.898-1.684-13.196 13.031z"/></g><g><path fill="#fff" d="M44.04 36.783V47.34a2.969 2.969 0 1 1-5.937 0V36.134c-.098-1.538-.963-5.289-7.093-5.289-6.624 0-6.761 5.702-6.763 6.082V47.34a2.969 2.969 0 1 1-5.938 0V36.618s-.006-.156 0-.433v-.392c0-.2.02-.402.06-.599.317-3.316 2.167-11.277 12.641-11.277 14.088 0 13.03 12.866 13.03 12.866z"/></g></g></g></svg>