<svg xmlns="http://www.w3.org/2000/svg" width="28" height="19" viewBox="0 0 28 19"><g><g><g><g><g><path fill="#fff" d="M26.22 15.72c0 .935-.76 1.695-1.695 1.695H2.782c-.934 0-1.694-.76-1.694-1.694V2.575L13.309 12.58a.543.543 0 0 0 .689 0l9.457-7.724a.544.544 0 0 0-.689-.843l-9.112 7.443L2.02 1.932h24.2zM26.764.845H.544c-.3 0-.544.244-.544.544v14.333a2.785 2.785 0 0 0 2.782 2.782h21.743a2.785 2.785 0 0 0 2.783-2.782V1.388c0-.3-.244-.544-.544-.544z"/></g></g></g><g><g><g><path fill="#fff" d="M25.063 2.84a.544.544 0 0 0-.765-.078l-.163.133a.544.544 0 1 0 .688.843l.163-.133a.544.544 0 0 0 .077-.766z"/></g></g></g></g></g></svg>