<svg xmlns="http://www.w3.org/2000/svg" width="20" height="29" viewBox="0 0 20 29"><g><g><g><path fill="#fff" d="M9.935 12.872a2.57 2.57 0 0 1-2.567-2.567A2.57 2.57 0 0 1 9.935 7.74a2.57 2.57 0 0 1 2.567 2.566 2.57 2.57 0 0 1-2.567 2.567zm0-6.16a3.598 3.598 0 0 0-3.593 3.593A3.598 3.598 0 0 0 9.935 13.9a3.598 3.598 0 0 0 3.593-3.594 3.598 3.598 0 0 0-3.593-3.593z"/></g><g><path fill="#fff" d="M16.887 16.687l-7.043 10.17L2.791 16.67C.12 13.112.504 7.267 3.61 4.16A8.76 8.76 0 0 1 9.844 1.58c2.355 0 4.57.917 6.235 2.582 3.106 3.106 3.488 8.951.808 12.526zm-.082-13.251A9.78 9.78 0 0 0 9.845.552a9.78 9.78 0 0 0-6.962 2.884c-3.44 3.44-3.868 9.913-.926 13.835l7.887 11.39 7.875-11.374c2.954-3.938 2.527-10.411-.914-13.851z"/></g></g></g></svg>