<svg xmlns="http://www.w3.org/2000/svg" width="24" height="24" viewBox="0 0 24 24"><g><g><path fill="#fff" d="M22.442 19.56l-1.183 1.974a2.007 2.007 0 0 1-1.185.918c-2.39.656-6.564.112-12.881-6.205C.875 9.93.332 5.755.988 3.366c.142-.5.471-.925.92-1.187L3.88.996a.594.594 0 0 1 .801.18l1.71 2.566 1.434 2.151a.598.598 0 0 1-.13.8L5.929 8.067a1.36 1.36 0 0 0-.36 1.745l.14.255c.496.91 1.113 2.043 3.367 4.295 2.253 2.253 3.385 2.87 4.295 3.367l.255.14a1.36 1.36 0 0 0 1.745-.36l1.374-1.766a.598.598 0 0 1 .8-.13l4.717 3.147a.594.594 0 0 1 .18.8zm.254-1.448l-4.718-3.146a1.377 1.377 0 0 0-1.843.3l-1.374 1.766a.587.587 0 0 1-.754.159l-.261-.144c-.866-.473-1.945-1.06-4.117-3.234-2.172-2.173-2.762-3.252-3.234-4.117l-.143-.261a.588.588 0 0 1 .155-.756l1.766-1.374a1.378 1.378 0 0 0 .3-1.844L5.327.744A1.37 1.37 0 0 0 3.48.328L1.507 1.513A2.783 2.783 0 0 0 .24 3.16c-.71 2.588-.176 7.055 6.404 13.637 5.234 5.234 9.131 6.641 11.81 6.641a6.881 6.881 0 0 0 1.825-.238 2.78 2.78 0 0 0 1.647-1.27l1.186-1.97a1.37 1.37 0 0 0-.415-1.848z"/></g></g></svg>