<svg xmlns="http://www.w3.org/2000/svg" width="21" height="12" viewBox="0 0 21 12"><g><g><path fill="#fff" d="M20.548 10.551c-.055-.093-.4-.842-2.059-2.381-1.736-1.613-1.503-1.35.588-4.138 1.274-1.698 1.784-2.735 1.624-3.178-.151-.422-1.088-.31-1.088-.31L16.497.56s-.23-.03-.403.072c-.167.1-.275.334-.275.334s-.493 1.314-1.152 2.431c-1.388 2.357-1.943 2.482-2.17 2.335-.528-.34-.395-1.37-.395-2.102 0-2.284.346-3.237-.676-3.483-.34-.082-.588-.136-1.455-.145C8.859-.01 7.917.007 7.384.267c-.355.174-.628.561-.461.583.206.027.673.126.92.463.32.434.309 1.411.309 1.411s.184 2.69-.43 3.023c-.42.23-.997-.238-2.235-2.378-.634-1.095-1.113-2.306-1.113-2.306S4.282.837 4.117.717c-.2-.147-.48-.193-.48-.193L.676.542S.231.555.068.748c-.145.172-.012.527-.012.527s2.32 5.426 4.945 8.162c2.41 2.508 5.144 2.343 5.144 2.343h1.239s.374-.042.565-.248c.176-.189.17-.544.17-.544s-.025-1.662.747-1.907c.76-.241 1.738 1.607 2.773 2.318.783.538 1.378.42 1.378.42l2.77-.039s1.448-.09.761-1.229z"/></g></g></svg>