<svg xmlns="http://www.w3.org/2000/svg" width="38" height="34" viewBox="0 0 38 34"><g><g><path fill="#e6c058" d="M18.774 29.34a1.939 1.939 0 0 1-1.937-1.938c0-1.068.869-1.937 1.937-1.937 1.069 0 1.937.869 1.937 1.937a1.939 1.939 0 0 1-1.937 1.937zm.023-19.41c1.046 0 1.891.868 1.86 1.914l-.307 10.73a1.557 1.557 0 0 1-1.56 1.515 1.563 1.563 0 0 1-1.561-1.514l-.3-10.731a1.87 1.87 0 0 1 1.868-1.914zm18.418 19.555L20.903 1.228c-.945-1.637-3.313-1.637-4.258 0L.333 29.485c-.946 1.638.238 3.69 2.13 3.69h32.623c1.89 0 3.075-2.052 2.13-3.69z"/></g></g></svg>