<svg xmlns="http://www.w3.org/2000/svg" width="65" height="66" viewBox="0 0 65 66"><g><g><g><g><g><path fill="#3865be" d="M61.86 23.233l-5.41-1.082a20.226 20.226 0 0 0-1.371-3.31l3.06-4.592a3.441 3.441 0 0 0-.428-4.33l-2.32-2.32a3.44 3.44 0 0 0-4.33-.429l-4.592 3.061a20.236 20.236 0 0 0-3.31-1.371l-1.082-5.41A3.441 3.441 0 0 0 38.712.69H35.43a3.441 3.441 0 0 0-3.366 2.76l-1.082 5.41c-1.141.358-2.25.817-3.31 1.371l-4.591-3.06a3.441 3.441 0 0 0-4.33.428l-2.32 2.32a3.441 3.441 0 0 0-.43 4.33l3.062 4.591a20.234 20.234 0 0 0-1.372 3.31l-5.41 1.083a3.441 3.441 0 0 0-2.76 3.365v3.28c0 1.63 1.161 3.046 2.76 3.366l3.503.7a1.02 1.02 0 0 0 .4-2l-3.503-.701a1.395 1.395 0 0 1-1.118-1.364v-3.28c0-.662.47-1.236 1.118-1.365l6.013-1.203a1.02 1.02 0 0 0 .783-.725c.392-1.401.952-2.753 1.665-4.019a1.02 1.02 0 0 0-.04-1.067L17.7 13.117a1.395 1.395 0 0 1 .174-1.755l2.32-2.32a1.395 1.395 0 0 1 1.755-.174l5.103 3.402c.32.213.732.229 1.067.04a18.172 18.172 0 0 1 4.018-1.665c.37-.103.65-.406.726-.782l1.203-6.014a1.395 1.395 0 0 1 1.364-1.118h3.28c.662 0 1.235.47 1.365 1.118l1.203 6.014c.075.376.355.679.725.782 1.4.392 2.753.952 4.019 1.665a1.02 1.02 0 0 0 1.066-.04l5.104-3.402a1.395 1.395 0 0 1 1.755.174l2.32 2.32c.467.467.54 1.205.174 1.755L53.04 18.22a1.02 1.02 0 0 0-.04 1.067 18.18 18.18 0 0 1 1.665 4.019c.103.37.406.65.782.725l6.014 1.203c.648.13 1.118.703 1.118 1.364v3.28c0 .662-.47 1.236-1.118 1.365l-6.014 1.203a1.02 1.02 0 0 0-.782.725A18.178 18.178 0 0 1 53 37.19a1.02 1.02 0 0 0 .04 1.067l3.402 5.103c.366.55.293 1.288-.174 1.755l-2.32 2.32a1.395 1.395 0 0 1-1.755.174l-5.104-3.402a1.02 1.02 0 1 0-1.131 1.698l5.103 3.402c.578.385 1.24.574 1.9.574.887 0 1.769-.342 2.43-1.003l2.32-2.32a3.441 3.441 0 0 0 .429-4.33l-3.061-4.591a20.241 20.241 0 0 0 1.371-3.31l5.41-1.083a3.441 3.441 0 0 0 2.76-3.365V26.6c0-1.631-1.16-3.046-2.76-3.366z"/></g><g><path fill="#3865be" d="M40.472 36.061H30.95a1.02 1.02 0 1 0 0 2.04h9.523c.938 0 1.7.763 1.7 1.701v1.36c0 .938-.762 1.701-1.7 1.701H30.95a1.02 1.02 0 1 0 0 2.04h9.523c.938 0 1.7.763 1.7 1.701v1.36c0 .938-.762 1.701-1.7 1.701H30.95a1.02 1.02 0 1 0 0 2.04h9.523c.938 0 1.7.763 1.7 1.701v1.36c0 .938-.762 1.701-1.7 1.701H30.95a1.02 1.02 0 1 0 0 2.04h9.523c.938 0 1.7.763 1.7 1.701v1.36c0 .938-.762 1.701-1.7 1.701H21.99a3.602 3.602 0 0 1-2.556-1.055 5.658 5.658 0 0 0-4.013-1.666h-2.497V49.325a1.02 1.02 0 1 0-2.04 0v13.604a.34.34 0 0 1-.34.34H7.481V49.325a1.02 1.02 0 1 0-2.04 0v13.944H2.38a.34.34 0 0 1-.34-.34V39.802a.34.34 0 0 1 .34-.34h8.162a.34.34 0 0 1 .34.34v5.442a1.02 1.02 0 1 0 2.04 0v-3.061h2.461a3.737 3.737 0 0 0 3.55-2.558l.379-1.14a34.482 34.482 0 0 0 1.773-10.927c0-.937.763-1.7 1.7-1.7a3.04 3.04 0 0 1 2.165.896 3.04 3.04 0 0 1 .897 2.165v10.883a1.02 1.02 0 0 0 2.04 0V28.919c0-1.363-.53-2.644-1.494-3.608a5.068 5.068 0 0 0-3.607-1.494 3.745 3.745 0 0 0-3.742 3.741c0 3.501-.56 6.96-1.668 10.281l-.38 1.14a1.698 1.698 0 0 1-1.613 1.163h-2.46v-.34a2.383 2.383 0 0 0-2.38-2.38H2.38A2.384 2.384 0 0 0 0 39.801v23.127a2.384 2.384 0 0 0 2.38 2.38h8.163a2.383 2.383 0 0 0 2.38-2.38v-.34h2.498c.965 0 1.879.38 2.573 1.071a5.63 5.63 0 0 0 3.996 1.65h18.482a3.745 3.745 0 0 0 3.741-3.741v-1.36c0-1.072-.452-2.039-1.176-2.722a3.732 3.732 0 0 0 1.176-2.72v-1.361c0-1.07-.452-2.038-1.176-2.72a3.732 3.732 0 0 0 1.176-2.722v-1.36c0-1.07-.452-2.038-1.176-2.72a3.732 3.732 0 0 0 1.176-2.722v-1.36a3.745 3.745 0 0 0-3.74-3.741z"/></g><g><path fill="#3865be" d="M36.578 25.08a3.201 3.201 0 0 1 3.651 2.666 3.2 3.2 0 0 1-2.665 3.651 3.2 3.2 0 0 1-3.651-2.665 3.2 3.2 0 0 1 2.665-3.652zm.49 8.396a5.243 5.243 0 0 0 5.178-6.045 5.243 5.243 0 0 0-5.983-4.367 5.243 5.243 0 0 0-4.367 5.982 5.246 5.246 0 0 0 5.172 4.43z"/></g><g><path fill="#3865be" d="M46.297 38.102c.27 0 .537-.106.738-.315 3.001-3.137 4.339-7.392 3.67-11.676a13.654 13.654 0 0 0-2.445-5.953 1.02 1.02 0 0 0-1.653 1.196 11.633 11.633 0 0 1 2.082 5.071c.57 3.65-.57 7.278-3.129 9.951a1.02 1.02 0 0 0 .737 1.726z"/></g><g><path fill="#3865be" d="M45.58 18.65c.34-.45.25-1.09-.2-1.43a13.686 13.686 0 0 0-10.437-2.615 13.71 13.71 0 0 0-9.985 7.022 1.02 1.02 0 0 0 1.79.98 11.684 11.684 0 0 1 8.51-5.986c3.17-.495 6.33.297 8.893 2.23.45.338 1.09.249 1.429-.201z"/></g></g></g></g></g></svg>