<svg xmlns="http://www.w3.org/2000/svg" width="54" height="65" viewBox="0 0 54 65"><g><g><g><g><g><path fill="#3865be" d="M51.36 43.174H27.567v-2.762H51.36zm0 6.139H27.567v-4.26H51.36zm0 4.641H27.567v-2.762H51.36zm0 9.166H27.567v-7.286H51.36zM20.594 5.906a13.059 13.059 0 0 0 6.02 1.477c2.123 0 4.199-.523 6.05-1.492l-4.032 7.556-1.997 3.723zM1.88 38.532V28.36c0-1.148.862-2.082 1.92-2.082 1.952 0 3.333-.824 4.103-2.45.55-1.159.784-2.66.784-5.019V4.963a2.284 2.284 0 0 1 2.282-2.282H16.7l8.972 16.727v19.124zm23.793 4.642H1.88v-2.762h23.793zm0 6.139H1.88v-4.26h23.793zm0 4.641H1.88v-2.762h23.793zM49.44 24.4c-1.905 0-3.007-.915-3.007-5.59v-3.294a.94.94 0 1 0-1.88 0v3.294c0 2.36.235 3.86.784 5.02.77 1.625 2.151 2.45 4.103 2.45 1.059 0 1.92.933 1.92 2.081v10.172H27.567V19.408l.361-.673c.034-.05.066-.1.095-.154l2.258-4.232L36.54 2.681h5.732a2.284 2.284 0 0 1 2.281 2.282v4.923a.94.94 0 1 0 1.88 0V4.963A4.166 4.166 0 0 0 42.272.802h-6.294a.94.94 0 0 0-.829.495l-.322.602a11.19 11.19 0 0 1-8.213 3.605c-3.096 0-6.08-1.303-8.185-3.576l-.339-.63a.94.94 0 0 0-.828-.496h-6.294a4.166 4.166 0 0 0-4.161 4.16V18.81c0 4.675-1.103 5.59-3.007 5.59-2.095 0-3.8 1.777-3.8 3.961v34.862C0 64.202.777 65 1.733 65h9.224a.94.94 0 0 0 0-1.88H1.879v-7.286h23.793v7.286h-9.14a.94.94 0 0 0 0 1.88H51.508c.955 0 1.733-.797 1.733-1.778V28.36c0-2.184-1.705-3.961-3.8-3.961z"/></g></g></g><g><g><g><path fill="#3865be" d="M37 28.19a3.178 3.178 0 0 1-3.174-3.175A3.178 3.178 0 0 1 37 21.841a3.178 3.178 0 0 1 3.174 3.174A3.178 3.178 0 0 1 37 28.189zm0-8.229a5.06 5.06 0 0 0-5.054 5.054A5.06 5.06 0 0 0 37 30.07a5.06 5.06 0 0 0 5.054-5.054A5.06 5.06 0 0 0 37 19.961z"/></g></g></g></g></g></svg>