<svg xmlns="http://www.w3.org/2000/svg" width="65" height="65" viewBox="0 0 65 65"><g><g><g><g><path fill="#3865be" d="M.142 5.819l4.293 7.513c.145.254.388.438.671.51l4.006 1 13.74 13.74 1.517-1.518L10.415 13.11a1.07 1.07 0 0 0-.498-.282l-3.85-.966-3.655-6.4 3.134-3.135 6.404 3.66.966 3.848c.047.19.145.362.282.5l13.954 13.953 1.518-1.518L14.93 9.031l-1-4.003a1.075 1.075 0 0 0-.51-.672L5.908.062a1.073 1.073 0 0 0-1.288.173L.325 4.529c-.345.34-.42.867-.183 1.29z"/></g><g><path fill="#3865be" d="M44.768 21.068L21.154 44.682l-1.518-1.518L43.25 19.55z"/></g><g><path fill="#3865be" d="M15.493 55.73h-5.225l-2.576-4.293 2.576-4.294h5.225l2.576 4.294zm1.528-10.213a1.073 1.073 0 0 0-.92-.52H9.66c-.377 0-.726.197-.92.52l-3.22 5.367c-.205.34-.205.765 0 1.106l3.22 5.366c.194.323.543.521.92.521h6.44c.377 0 .725-.198.92-.52l3.22-5.367c.204-.34.204-.766 0-1.106z"/></g><g><path fill="#3865be" d="M47.914 23.478l-24.35 24.345a1.075 1.075 0 0 0-.284 1.02c1.473 5.783-2.022 11.665-7.805 13.137-5.783 1.473-11.665-2.022-13.138-7.805C.865 48.392 4.36 42.51 10.143 41.037a10.812 10.812 0 0 1 5.332 0c.366.09.752-.018 1.02-.283l24.344-24.345c.267-.267.374-.654.282-1.02-1.462-5.715 1.985-11.534 7.7-12.997a10.688 10.688 0 0 1 3.31-.313L46.47 7.744a1.072 1.072 0 0 0-.26 1.097l2.146 6.441c.108.32.36.572.68.678l6.44 2.147c.386.129.81.028 1.098-.259l5.662-5.662c.013.205.02.408.02.61.03 5.897-4.727 10.703-10.625 10.733-.911.005-1.82-.107-2.703-.333a1.074 1.074 0 0 0-1.02.282h.005zm-4.335 10.796a3.35 3.35 0 0 0 4.723 4.716l12.045 12.056c.131.131.253.27.372.41l-9.178 9.177a6.25 6.25 0 0 1-.41-.37L39.076 48.205a3.35 3.35 0 0 0-4.723-4.716l-1.717-1.718 9.226-9.211zM55.74 62.17a6.522 6.522 0 0 1-2.283-.416l8.383-8.384a6.509 6.509 0 0 1-6.1 8.8zm-4.217-36.495c7.09.024 12.856-5.704 12.88-12.793a12.84 12.84 0 0 0-.395-3.2 1.073 1.073 0 0 0-1.8-.5l-6.681 6.677-5.301-1.767-1.768-5.3 6.681-6.683A1.073 1.073 0 0 0 54.635.31c-6.875-1.741-13.86 2.42-15.6 9.295a12.811 12.811 0 0 0-.393 3.191 12.6 12.6 0 0 0 .26 2.516L15.396 38.817c-.827-.17-1.67-.258-2.514-.26C5.767 38.556 0 44.322 0 51.436c0 7.114 5.767 12.88 12.88 12.88 7.114 0 12.88-5.767 12.88-12.88a12.631 12.631 0 0 0-.26-2.515l5.628-5.628 2.46 2.461c.42.42 1.1.42 1.519 0l.536-.536a1.208 1.208 0 0 1 1.703 0c.47.468.47 1.23.002 1.7l-.002.002-.537.537a1.073 1.073 0 0 0 0 1.517L49.613 61.78A8.663 8.663 0 1 0 61.92 49.584l-.055-.056L49.06 36.724a1.073 1.073 0 0 0-1.518 0l-.537.537a1.208 1.208 0 0 1-1.702 0 1.202 1.202 0 0 1-.002-1.7l.002-.003.537-.536a1.073 1.073 0 0 0 0-1.518l-2.461-2.461 5.627-5.628c.828.17 1.67.258 2.515.261z"/></g><g><path fill="#3865be" d="M55.502 53.898l-1.518 1.518L43.25 44.683l1.517-1.519z"/></g></g></g></g></svg>