<svg xmlns="http://www.w3.org/2000/svg" width="65" height="65" viewBox="0 0 65 65"><g><g><g><g><g><path fill="#3865be" d="M62.166 34.989c0 .592-.48 1.072-1.072 1.072H3.215c-.591 0-1.071-.48-1.071-1.072v-2.144c0-.592.48-1.072 1.071-1.072h57.88c.591 0 1.071.48 1.071 1.072zM22.508 5.719V24.27a1.072 1.072 0 0 0 2.144 0V3.906c0-.592.48-1.072 1.072-1.072h5.36v23.58a1.072 1.072 0 0 0 2.143 0V2.834h5.359c.592 0 1.072.48 1.072 1.072V24.27a1.072 1.072 0 0 0 2.143 0V5.718A26.667 26.667 0 0 1 58.908 29.63H5.402A26.667 26.667 0 0 1 22.508 5.718zm38.543 23.91A28.802 28.802 0 0 0 41.752 3.42 3.215 3.215 0 0 0 38.586.69H25.724a3.215 3.215 0 0 0-3.166 2.73 28.802 28.802 0 0 0-19.3 26.21h-.043A3.215 3.215 0 0 0 0 32.845v2.144a3.215 3.215 0 0 0 3.215 3.215h57.88a3.215 3.215 0 0 0 3.215-3.215v-2.144a3.215 3.215 0 0 0-3.216-3.215z"/></g><g><path fill="#3865be" d="M26.796 47.85H12.862a3.215 3.215 0 0 0-3.216 3.216v4.288a1.072 1.072 0 0 0 2.144 0v-4.288c0-.592.48-1.072 1.072-1.072h13.934a1.072 1.072 0 0 0 0-2.143z"/></g><g><path fill="#3865be" d="M62.166 51.066h-3.215v-1.072h3.215zm0 5.36h-3.215V53.21h3.215zm-5.359 1.071a5.366 5.366 0 0 1-5.36 5.36h-6.43a11.859 11.859 0 0 1-10.131-5.753 3.194 3.194 0 0 0-5.466 0 11.859 11.859 0 0 1-10.127 5.752h-6.431a5.366 5.366 0 0 1-5.36-5.359v-8.574a3.215 3.215 0 0 1 3.216-3.216h42.874a3.215 3.215 0 0 1 3.215 3.216zM5.359 52.138H2.144v-1.072h3.215zm0 5.36H2.144v-3.216h3.215zm53.484-9.647a5.369 5.369 0 0 0-5.251-4.287H10.718a5.366 5.366 0 0 0-5.359 5.359H1.072c-.592 0-1.072.48-1.072 1.072v8.574c0 .592.48 1.072 1.072 1.072H5.68a7.513 7.513 0 0 0 7.181 5.36h6.431a14.01 14.01 0 0 0 11.97-6.797 1.052 1.052 0 0 1 1.784 0A14.01 14.01 0 0 0 45.017 65h6.43a7.503 7.503 0 0 0 7.418-6.43h4.373c.592 0 1.072-.48 1.072-1.073v-8.574c0-.592-.48-1.072-1.072-1.072z"/></g><g><path fill="#3865be" d="M33.227 47.85h-2.144a1.072 1.072 0 0 0 0 2.145h2.144a1.072 1.072 0 0 0 0-2.144z"/></g></g></g></g></g></svg>